<svg id="Layer_1" data-name="Layer 1" xmlns="http://www.w3.org/2000/svg" viewBox="0 0 50 50"><defs><style>.cls-1{fill:#fff;}</style></defs><path class="cls-1" d="M34.6,0H15.41A15.41,15.41,0,0,0,0,15.41V34.6A15.41,15.41,0,0,0,15.41,50H34.6A15.41,15.41,0,0,0,50,34.6V15.41A15.41,15.41,0,0,0,34.6,0ZM45.2,32.75A12.44,12.44,0,0,1,32.75,45.2H17.25A12.44,12.44,0,0,1,4.8,32.75V17.25A12.44,12.44,0,0,1,17.25,4.8h15.5A12.44,12.44,0,0,1,45.2,17.25Z"/><path class="cls-1" d="M25.67,11.92A13.17,13.17,0,1,0,38.84,25.09,13.17,13.17,0,0,0,25.67,11.92Zm0,21.09a7.93,7.93,0,1,1,7.92-7.92A7.92,7.92,0,0,1,25.67,33Z"/><path class="cls-1" d="M41.28,11.71a3.35,3.35,0,1,1-3.35-3.35A3.35,3.35,0,0,1,41.28,11.71Z"/></svg>